<mxfile host="app.diagrams.net" modified="2020-11-21T11:03:37.960Z" agent="5.0 (Windows NT 10.0; Win64; x64) AppleWebKit/537.36 (KHTML, like Gecko) Chrome/86.0.4240.198 Safari/537.36 Edg/86.0.622.69" etag="HOlA3_ad7lLZ7sFOXrFi" version="13.9.9" type="github">
  <diagram name="Page-1" id="74e2e168-ea6b-b213-b513-2b3c1d86103e">
    <mxGraphModel dx="1635" dy="1752" grid="1" gridSize="10" guides="1" tooltips="1" connect="1" arrows="1" fold="1" page="1" pageScale="1" pageWidth="1100" pageHeight="850" background="#ffffff" math="0" shadow="0">
      <root>
        <mxCell id="0" />
        <mxCell id="1" parent="0" />
        <mxCell id="qDta5JlDgPlaHw58DqpI-17" style="rounded=0;orthogonalLoop=1;jettySize=auto;html=1;entryX=0.5;entryY=0;entryDx=0;entryDy=0;" edge="1" parent="1" source="qDta5JlDgPlaHw58DqpI-1" target="qDta5JlDgPlaHw58DqpI-4">
          <mxGeometry relative="1" as="geometry">
            <mxPoint x="410" y="135" as="targetPoint" />
          </mxGeometry>
        </mxCell>
        <mxCell id="qDta5JlDgPlaHw58DqpI-20" style="edgeStyle=none;rounded=0;orthogonalLoop=1;jettySize=auto;html=1;entryX=0;entryY=0.5;entryDx=0;entryDy=0;" edge="1" parent="1" source="qDta5JlDgPlaHw58DqpI-1" target="qDta5JlDgPlaHw58DqpI-14">
          <mxGeometry relative="1" as="geometry" />
        </mxCell>
        <mxCell id="qDta5JlDgPlaHw58DqpI-1" value="Nhân viên" style="shape=umlActor;verticalLabelPosition=bottom;verticalAlign=top;html=1;outlineConnect=0;" vertex="1" parent="1">
          <mxGeometry x="110" y="160" width="40" height="100" as="geometry" />
        </mxCell>
        <mxCell id="qDta5JlDgPlaHw58DqpI-21" style="edgeStyle=none;rounded=0;orthogonalLoop=1;jettySize=auto;html=1;entryX=0.999;entryY=0.264;entryDx=0;entryDy=0;entryPerimeter=0;" edge="1" parent="1" source="qDta5JlDgPlaHw58DqpI-2" target="qDta5JlDgPlaHw58DqpI-5">
          <mxGeometry relative="1" as="geometry" />
        </mxCell>
        <mxCell id="qDta5JlDgPlaHw58DqpI-22" style="edgeStyle=none;rounded=0;orthogonalLoop=1;jettySize=auto;html=1;entryX=0.61;entryY=0.007;entryDx=0;entryDy=0;entryPerimeter=0;" edge="1" parent="1" source="qDta5JlDgPlaHw58DqpI-2" target="qDta5JlDgPlaHw58DqpI-6">
          <mxGeometry relative="1" as="geometry" />
        </mxCell>
        <mxCell id="qDta5JlDgPlaHw58DqpI-23" style="edgeStyle=none;rounded=0;orthogonalLoop=1;jettySize=auto;html=1;entryX=0.75;entryY=0;entryDx=0;entryDy=0;entryPerimeter=0;" edge="1" parent="1" source="qDta5JlDgPlaHw58DqpI-2" target="qDta5JlDgPlaHw58DqpI-15">
          <mxGeometry relative="1" as="geometry" />
        </mxCell>
        <mxCell id="qDta5JlDgPlaHw58DqpI-24" style="edgeStyle=none;rounded=0;orthogonalLoop=1;jettySize=auto;html=1;entryX=0.564;entryY=-0.028;entryDx=0;entryDy=0;entryPerimeter=0;" edge="1" parent="1" source="qDta5JlDgPlaHw58DqpI-2" target="qDta5JlDgPlaHw58DqpI-13">
          <mxGeometry relative="1" as="geometry" />
        </mxCell>
        <mxCell id="qDta5JlDgPlaHw58DqpI-25" style="edgeStyle=none;rounded=0;orthogonalLoop=1;jettySize=auto;html=1;entryX=1.008;entryY=0.618;entryDx=0;entryDy=0;entryPerimeter=0;" edge="1" parent="1" source="qDta5JlDgPlaHw58DqpI-2" target="qDta5JlDgPlaHw58DqpI-9">
          <mxGeometry relative="1" as="geometry" />
        </mxCell>
        <mxCell id="qDta5JlDgPlaHw58DqpI-26" style="edgeStyle=none;rounded=0;orthogonalLoop=1;jettySize=auto;html=1;entryX=0.917;entryY=0.875;entryDx=0;entryDy=0;entryPerimeter=0;" edge="1" parent="1" source="qDta5JlDgPlaHw58DqpI-2" target="qDta5JlDgPlaHw58DqpI-7">
          <mxGeometry relative="1" as="geometry" />
        </mxCell>
        <mxCell id="qDta5JlDgPlaHw58DqpI-2" value="Quản lý" style="shape=umlActor;verticalLabelPosition=bottom;verticalAlign=top;html=1;outlineConnect=0;" vertex="1" parent="1">
          <mxGeometry x="980" y="130" width="40" height="110" as="geometry" />
        </mxCell>
        <mxCell id="qDta5JlDgPlaHw58DqpI-4" value="BÁN HÀNG" style="ellipse;whiteSpace=wrap;html=1;" vertex="1" parent="1">
          <mxGeometry x="280" y="480" width="120" height="80" as="geometry" />
        </mxCell>
        <mxCell id="qDta5JlDgPlaHw58DqpI-33" style="edgeStyle=none;rounded=0;orthogonalLoop=1;jettySize=auto;html=1;dashed=1;" edge="1" parent="1" source="qDta5JlDgPlaHw58DqpI-5" target="qDta5JlDgPlaHw58DqpI-8">
          <mxGeometry relative="1" as="geometry" />
        </mxCell>
        <mxCell id="qDta5JlDgPlaHw58DqpI-5" value="QUẢN LÝ NHÂN VIÊN" style="ellipse;whiteSpace=wrap;html=1;" vertex="1" parent="1">
          <mxGeometry x="660" y="105" width="120" height="80" as="geometry" />
        </mxCell>
        <mxCell id="qDta5JlDgPlaHw58DqpI-6" value="QUẢN LÝ KHO" style="ellipse;whiteSpace=wrap;html=1;" vertex="1" parent="1">
          <mxGeometry x="660" y="510" width="120" height="80" as="geometry" />
        </mxCell>
        <mxCell id="qDta5JlDgPlaHw58DqpI-7" value="THỐNG KÊ" style="ellipse;whiteSpace=wrap;html=1;" vertex="1" parent="1">
          <mxGeometry x="660" y="-5" width="120" height="80" as="geometry" />
        </mxCell>
        <mxCell id="qDta5JlDgPlaHw58DqpI-8" value="ĐĂNG NHẬP" style="ellipse;whiteSpace=wrap;html=1;" vertex="1" parent="1">
          <mxGeometry x="440" y="185" width="120" height="80" as="geometry" />
        </mxCell>
        <mxCell id="qDta5JlDgPlaHw58DqpI-9" value="QL DANH MỤC" style="ellipse;whiteSpace=wrap;html=1;" vertex="1" parent="1">
          <mxGeometry x="670" y="-130" width="120" height="80" as="geometry" />
        </mxCell>
        <mxCell id="qDta5JlDgPlaHw58DqpI-13" value="KIỂM TRA NHẬP HÀNG" style="ellipse;whiteSpace=wrap;html=1;" vertex="1" parent="1">
          <mxGeometry x="660" y="360" width="120" height="80" as="geometry" />
        </mxCell>
        <mxCell id="qDta5JlDgPlaHw58DqpI-14" value="QL KHÁCH HÀNG" style="ellipse;whiteSpace=wrap;html=1;" vertex="1" parent="1">
          <mxGeometry x="650" y="-270" width="120" height="80" as="geometry" />
        </mxCell>
        <mxCell id="qDta5JlDgPlaHw58DqpI-15" value="CÔNG NỢ" style="ellipse;whiteSpace=wrap;html=1;" vertex="1" parent="1">
          <mxGeometry x="660" y="230" width="120" height="80" as="geometry" />
        </mxCell>
        <mxCell id="qDta5JlDgPlaHw58DqpI-34" style="edgeStyle=none;rounded=0;orthogonalLoop=1;jettySize=auto;html=1;dashed=1;entryX=0.675;entryY=0.972;entryDx=0;entryDy=0;entryPerimeter=0;" edge="1" parent="1" source="qDta5JlDgPlaHw58DqpI-15" target="qDta5JlDgPlaHw58DqpI-8">
          <mxGeometry relative="1" as="geometry">
            <mxPoint x="640.0018930256605" y="288.12656538000203" as="sourcePoint" />
            <mxPoint x="525.4937343748614" y="329.9959147727776" as="targetPoint" />
          </mxGeometry>
        </mxCell>
        <mxCell id="qDta5JlDgPlaHw58DqpI-35" style="edgeStyle=none;rounded=0;orthogonalLoop=1;jettySize=auto;html=1;dashed=1;entryX=0.5;entryY=1;entryDx=0;entryDy=0;" edge="1" parent="1" source="qDta5JlDgPlaHw58DqpI-13" target="qDta5JlDgPlaHw58DqpI-8">
          <mxGeometry relative="1" as="geometry">
            <mxPoint x="607.5118930256605" y="409.99656538000204" as="sourcePoint" />
            <mxPoint x="493.0037343748614" y="451.8659147727776" as="targetPoint" />
          </mxGeometry>
        </mxCell>
        <mxCell id="qDta5JlDgPlaHw58DqpI-36" style="edgeStyle=none;rounded=0;orthogonalLoop=1;jettySize=auto;html=1;dashed=1;exitX=0;exitY=0;exitDx=0;exitDy=0;" edge="1" parent="1" source="qDta5JlDgPlaHw58DqpI-6">
          <mxGeometry relative="1" as="geometry">
            <mxPoint x="683.5625620478036" y="369.67048838971095" as="sourcePoint" />
            <mxPoint x="500" y="270" as="targetPoint" />
          </mxGeometry>
        </mxCell>
        <mxCell id="qDta5JlDgPlaHw58DqpI-37" style="edgeStyle=none;rounded=0;orthogonalLoop=1;jettySize=auto;html=1;dashed=1;" edge="1" parent="1" source="qDta5JlDgPlaHw58DqpI-7" target="qDta5JlDgPlaHw58DqpI-8">
          <mxGeometry relative="1" as="geometry">
            <mxPoint x="693.5625620478036" y="379.67048838971095" as="sourcePoint" />
            <mxPoint x="520" y="285" as="targetPoint" />
          </mxGeometry>
        </mxCell>
        <mxCell id="qDta5JlDgPlaHw58DqpI-38" style="edgeStyle=none;rounded=0;orthogonalLoop=1;jettySize=auto;html=1;dashed=1;entryX=0.5;entryY=0;entryDx=0;entryDy=0;exitX=-0.029;exitY=0.59;exitDx=0;exitDy=0;exitPerimeter=0;" edge="1" parent="1" source="qDta5JlDgPlaHw58DqpI-9" target="qDta5JlDgPlaHw58DqpI-8">
          <mxGeometry relative="1" as="geometry">
            <mxPoint x="703.5625620478036" y="389.67048838971095" as="sourcePoint" />
            <mxPoint x="530" y="295" as="targetPoint" />
          </mxGeometry>
        </mxCell>
        <mxCell id="qDta5JlDgPlaHw58DqpI-39" style="edgeStyle=none;rounded=0;orthogonalLoop=1;jettySize=auto;html=1;dashed=1;exitX=1;exitY=0;exitDx=0;exitDy=0;entryX=0;entryY=1;entryDx=0;entryDy=0;" edge="1" parent="1" source="qDta5JlDgPlaHw58DqpI-4" target="qDta5JlDgPlaHw58DqpI-8">
          <mxGeometry relative="1" as="geometry">
            <mxPoint x="477.57359312880726" y="501.7157287525383" as="sourcePoint" />
            <mxPoint x="320" y="230" as="targetPoint" />
            <Array as="points">
              <mxPoint x="420" y="370" />
            </Array>
          </mxGeometry>
        </mxCell>
        <mxCell id="qDta5JlDgPlaHw58DqpI-49" value="&amp;lt;include&amp;gt;" style="edgeLabel;html=1;align=center;verticalAlign=middle;resizable=0;points=[];fontSize=15;" vertex="1" connectable="0" parent="qDta5JlDgPlaHw58DqpI-39">
          <mxGeometry x="-0.0802" y="-1" relative="1" as="geometry">
            <mxPoint as="offset" />
          </mxGeometry>
        </mxCell>
        <mxCell id="qDta5JlDgPlaHw58DqpI-40" style="edgeStyle=none;rounded=0;orthogonalLoop=1;jettySize=auto;html=1;dashed=1;exitX=0;exitY=1;exitDx=0;exitDy=0;entryX=0;entryY=0;entryDx=0;entryDy=0;" edge="1" parent="1" source="qDta5JlDgPlaHw58DqpI-14" target="qDta5JlDgPlaHw58DqpI-8">
          <mxGeometry relative="1" as="geometry">
            <mxPoint x="677.5735931288073" y="561.7157287525383" as="sourcePoint" />
            <mxPoint x="520" y="290" as="targetPoint" />
          </mxGeometry>
        </mxCell>
        <mxCell id="qDta5JlDgPlaHw58DqpI-50" value="&amp;lt;include&amp;gt;" style="edgeLabel;html=1;align=center;verticalAlign=middle;resizable=0;points=[];fontSize=15;" vertex="1" connectable="0" parent="1">
          <mxGeometry x="570.0028822453808" y="379.9972646448879" as="geometry" />
        </mxCell>
        <mxCell id="qDta5JlDgPlaHw58DqpI-51" value="&amp;lt;include&amp;gt;" style="edgeLabel;html=1;align=center;verticalAlign=middle;resizable=0;points=[];fontSize=15;" vertex="1" connectable="0" parent="1">
          <mxGeometry x="450.0028822453807" y="399.9972646448879" as="geometry">
            <mxPoint x="169" y="-64" as="offset" />
          </mxGeometry>
        </mxCell>
        <mxCell id="qDta5JlDgPlaHw58DqpI-52" value="&amp;lt;include&amp;gt;" style="edgeLabel;html=1;align=center;verticalAlign=middle;resizable=0;points=[];fontSize=15;" vertex="1" connectable="0" parent="1">
          <mxGeometry x="430.0028822453807" y="389.9972646448879" as="geometry">
            <mxPoint x="176" y="-124" as="offset" />
          </mxGeometry>
        </mxCell>
        <mxCell id="qDta5JlDgPlaHw58DqpI-53" value="&amp;lt;include&amp;gt;" style="edgeLabel;html=1;align=center;verticalAlign=middle;resizable=0;points=[];fontSize=15;" vertex="1" connectable="0" parent="1">
          <mxGeometry x="457.3028822453807" y="409.9972646448879" as="geometry">
            <mxPoint x="167" y="-231" as="offset" />
          </mxGeometry>
        </mxCell>
        <mxCell id="qDta5JlDgPlaHw58DqpI-54" value="&amp;lt;include&amp;gt;" style="edgeLabel;html=1;align=center;verticalAlign=middle;resizable=0;points=[];fontSize=15;" vertex="1" connectable="0" parent="1">
          <mxGeometry x="467.3028822453807" y="432.1272646448879" as="geometry">
            <mxPoint x="145" y="-302" as="offset" />
          </mxGeometry>
        </mxCell>
        <mxCell id="qDta5JlDgPlaHw58DqpI-55" value="&amp;lt;include&amp;gt;" style="edgeLabel;html=1;align=center;verticalAlign=middle;resizable=0;points=[];fontSize=15;" vertex="1" connectable="0" parent="1">
          <mxGeometry x="477.3028822453807" y="442.1272646448879" as="geometry">
            <mxPoint x="98" y="-382" as="offset" />
          </mxGeometry>
        </mxCell>
        <mxCell id="qDta5JlDgPlaHw58DqpI-56" value="&amp;lt;include&amp;gt;" style="edgeLabel;html=1;align=center;verticalAlign=middle;resizable=0;points=[];fontSize=15;" vertex="1" connectable="0" parent="1">
          <mxGeometry x="540.0028822453808" y="349.9972646448879" as="geometry">
            <mxPoint x="48" y="-402" as="offset" />
          </mxGeometry>
        </mxCell>
        <mxCell id="qDta5JlDgPlaHw58DqpI-58" style="rounded=0;orthogonalLoop=1;jettySize=auto;html=1;exitX=0.25;exitY=0.1;exitDx=0;exitDy=0;exitPerimeter=0;" edge="1" parent="1" source="qDta5JlDgPlaHw58DqpI-2" target="qDta5JlDgPlaHw58DqpI-14">
          <mxGeometry relative="1" as="geometry">
            <mxPoint x="980" y="70" as="sourcePoint" />
            <mxPoint x="820" y="-184.13999999999993" as="targetPoint" />
          </mxGeometry>
        </mxCell>
        <mxCell id="qDta5JlDgPlaHw58DqpI-59" style="edgeStyle=none;rounded=0;orthogonalLoop=1;jettySize=auto;html=1;entryX=0;entryY=0.3333333333333333;entryDx=0;entryDy=0;entryPerimeter=0;dashed=1;fontSize=15;" edge="1" parent="1" source="qDta5JlDgPlaHw58DqpI-1" target="qDta5JlDgPlaHw58DqpI-1">
          <mxGeometry relative="1" as="geometry" />
        </mxCell>
        <mxCell id="qDta5JlDgPlaHw58DqpI-60" value="" style="strokeWidth=2;html=1;shape=mxgraph.flowchart.annotation_1;align=left;pointerEvents=1;fontSize=15;" vertex="1" parent="1">
          <mxGeometry x="220" y="-290" width="740" height="900" as="geometry" />
        </mxCell>
        <mxCell id="qDta5JlDgPlaHw58DqpI-61" value="" style="endArrow=none;html=1;fontSize=15;entryX=1;entryY=0;entryDx=0;entryDy=0;entryPerimeter=0;exitX=1;exitY=1;exitDx=0;exitDy=0;exitPerimeter=0;" edge="1" parent="1" source="qDta5JlDgPlaHw58DqpI-60" target="qDta5JlDgPlaHw58DqpI-60">
          <mxGeometry width="50" height="50" relative="1" as="geometry">
            <mxPoint x="990" y="-20" as="sourcePoint" />
            <mxPoint x="1040" y="-70" as="targetPoint" />
          </mxGeometry>
        </mxCell>
      </root>
    </mxGraphModel>
  </diagram>
</mxfile>
